<svg width="50" height="51" fill="none" xmlns="http://www.w3.org/2000/svg"><g clip-path="url(#a)"><path d="M8.854.2h32.292C46.042.2 50 4.26 50 9.281V41.12c0 5.021-3.958 9.081-8.854 9.081H8.854C3.958 50.2 0 46.14 0 41.12V9.281C0 4.26 3.958.201 8.854.201Z" fill="#300"/><path d="M24.23 30.2h-7.75l-1.584 5.022a.366.366 0 0 1-.396.299h-3.917c-.229 0-.291-.128-.229-.385l6.709-19.807c.062-.214.125-.45.208-.706.083-.448.125-.918.125-1.388-.021-.107.062-.214.166-.236h5.396c.167 0 .25.065.271.171l7.604 22.009c.063.235 0 .342-.208.342h-4.354c-.146.021-.292-.086-.334-.235L24.23 30.2Zm-6.543-4.337h5.292a30.908 30.908 0 0 0-.479-1.539 65.58 65.58 0 0 1-.563-1.837c-.208-.663-.395-1.304-.604-1.966a47.225 47.225 0 0 1-.562-1.902c-.167-.598-.313-1.154-.459-1.666h-.041a26.795 26.795 0 0 1-.709 2.756c-.312 1.026-.625 2.094-.958 3.162a42.693 42.693 0 0 1-.916 2.992Zm17.688-9.21a2.544 2.544 0 0 1-1.854-.748 2.818 2.818 0 0 1-.709-1.965c-.02-.727.25-1.41.75-1.902a2.632 2.632 0 0 1 1.855-.748c.812 0 1.437.256 1.895.748.459.513.709 1.197.688 1.902.02.726-.23 1.431-.73 1.965a2.412 2.412 0 0 1-1.895.748ZM33.042 35.2V18.747c0-.213.083-.299.27-.299h4.126c.187 0 .27.107.27.3V35.2c0 .235-.083.342-.27.342h-4.084c-.208 0-.312-.128-.312-.342Z" fill="#FF9A00"/></g><defs><clipPath id="a"><path fill="#fff" transform="translate(0 .2)" d="M0 0h50v50H0z"/></clipPath></defs></svg>