<svg width="50" height="51" fill="none" xmlns="http://www.w3.org/2000/svg"><g clip-path="url(#a)"><path d="M8.854.2h32.292C46.042.2 50 4.26 50 9.281V41.12c0 5.021-3.958 9.081-8.854 9.081H8.854C3.958 50.2 0 46.14 0 41.12V9.281C0 4.26 3.958.201 8.854.201Z" fill="#001E36"/><path d="M11.25 35.264V13.277c0-.15.063-.235.208-.235.354 0 .688 0 1.167-.021.5-.022 1.02-.022 1.583-.043.563-.021 1.167-.021 1.813-.043.646-.02 1.27-.02 1.896-.02 1.708 0 3.125.213 4.291.662A7.41 7.41 0 0 1 25 15.329a6.826 6.826 0 0 1 1.52 2.436 8.35 8.35 0 0 1 .48 2.777c0 1.838-.417 3.355-1.25 4.551a7.16 7.16 0 0 1-3.354 2.607c-1.417.535-2.98.727-4.688.727-.5 0-.833 0-1.041-.021-.209-.022-.5-.022-.896-.022v6.86a.265.265 0 0 1-.23.298H11.5c-.167 0-.25-.085-.25-.278Zm4.542-18.098v7.18c.291.021.562.042.812.042h1.104c.813 0 1.625-.128 2.396-.384.667-.193 1.25-.599 1.709-1.133.437-.534.645-1.26.645-2.2a3.587 3.587 0 0 0-.479-1.902 3.039 3.039 0 0 0-1.458-1.218c-.771-.32-1.604-.449-2.459-.427-.541 0-1.02 0-1.416.02-.417-.02-.709 0-.854.022ZM40 23.042a7.256 7.256 0 0 0-2-.726 10.713 10.713 0 0 0-2.333-.278 4.095 4.095 0 0 0-1.25.15c-.271.064-.5.213-.646.427a1.157 1.157 0 0 0-.167.577c0 .192.084.385.209.556.187.235.437.427.708.576.479.257.979.492 1.479.706a14.85 14.85 0 0 1 3.208 1.56 4.921 4.921 0 0 1 1.646 1.773c.334.684.5 1.432.48 2.2a5.065 5.065 0 0 1-.813 2.843 5.246 5.246 0 0 1-2.334 1.901c-1.02.45-2.27.684-3.77.684a13.96 13.96 0 0 1-2.834-.278 8.252 8.252 0 0 1-2.125-.683c-.145-.086-.25-.235-.229-.406v-3.718c0-.064.021-.15.084-.193.062-.042.125-.021.187.022a8.788 8.788 0 0 0 2.583 1.047c.792.213 1.625.32 2.459.32.791 0 1.354-.107 1.729-.299a.994.994 0 0 0 .562-.897c0-.3-.166-.577-.5-.855-.333-.278-1.02-.598-2.041-1.004a12.627 12.627 0 0 1-2.959-1.539 5.487 5.487 0 0 1-1.583-1.816 4.68 4.68 0 0 1-.48-2.18c0-.918.25-1.794.71-2.585a5.179 5.179 0 0 1 2.187-1.966c.979-.513 2.208-.748 3.687-.748.854 0 1.73.064 2.584.193a7.168 7.168 0 0 1 1.791.491c.084.022.167.107.209.192.02.086.041.171.041.257v3.483c0 .085-.041.17-.104.213-.188.043-.292.043-.375 0Z" fill="#31A8FF"/></g><defs><clipPath id="a"><path fill="#fff" transform="translate(0 .2)" d="M0 0h50v50H0z"/></clipPath></defs></svg>