<svg width="50" height="51" fill="none" xmlns="http://www.w3.org/2000/svg"><g clip-path="url(#a)"><path d="M42.188.2H7.812A7.812 7.812 0 0 0 0 8.012v34.376A7.812 7.812 0 0 0 7.812 50.2h34.376A7.812 7.812 0 0 0 50 42.388V8.012A7.812 7.812 0 0 0 42.188.2Z" fill="#001E36"/><path d="M18.4 35.55v.004a.588.588 0 0 1-.198.325.566.566 0 0 1-.363.117H6.528a.525.525 0 0 1-.402-.163.593.593 0 0 1-.136-.406V15.645a.476.476 0 0 1 .508-.508h3.297a.433.433 0 0 1 .337.145.5.5 0 0 1 .109.332V32.58h8.182a.502.502 0 0 1 .391.151.451.451 0 0 1 .081.414l-.495 2.404v.001Zm1.552-14.936a.45.45 0 0 1 .352-.145H23.2a.61.61 0 0 1 .362.112.653.653 0 0 1 .22.302c.145.397.237.81.274 1.23a5.89 5.89 0 0 1 4.505-1.92.449.449 0 0 1 .478.476v3.112a.446.446 0 0 1-.531.476c-1.728-.098-3.053.352-4.014 1.311a.743.743 0 0 0-.201.555v9.398a.459.459 0 0 1-.151.358.532.532 0 0 1-.357.117H20.55a.559.559 0 0 1-.382-.128.492.492 0 0 1-.156-.38V25.074c0-1.657-.051-3.023-.152-4.099a.453.453 0 0 1 .09-.362l.002.001Zm24.486 15.02-.016.007c-1.052.43-2.5.636-4.32.636-2.974 0-5.453-.892-7.418-2.687-1.982-1.812-2.951-4.533-2.951-8.112 0-3.179.964-5.756 2.911-7.704 1.967-1.967 4.554-2.942 7.734-2.942 1.872 0 3.302.214 4.258.667.115.042.21.124.268.232a.716.716 0 0 1 .078.348v2.681a.894.894 0 0 1-.024.218.404.404 0 0 1-.142.223.346.346 0 0 1-.297.056.546.546 0 0 1-.186-.091 7.845 7.845 0 0 0-3.834-.82c-1.996 0-3.545.616-4.678 1.828-1.133 1.19-1.715 2.904-1.715 5.182a9.857 9.857 0 0 0 .597 3.6 5.3 5.3 0 0 0 1.612 2.262c.626.49 1.329.872 2.08 1.13a7.39 7.39 0 0 0 2.291.357c1.205.013 2.402-.18 3.543-.568a.414.414 0 0 1 .407.024c.112.091.173.23.163.374V35a.687.687 0 0 1-.347.627l-.015.009.001-.002Z" fill="#31A8FF"/></g><defs><clipPath id="a"><path fill="#fff" transform="translate(0 .2)" d="M0 0h50v50H0z"/></clipPath></defs></svg>