<svg width="50" height="51" fill="none" xmlns="http://www.w3.org/2000/svg"><g clip-path="url(#a)"><path d="M8.854.2h32.292C46.042.2 50 4.26 50 9.281V41.12c0 5.021-3.958 9.081-8.854 9.081H8.854C3.958 50.2 0 46.14 0 41.12V9.28C0 4.261 3.958.201 8.854.201Z" fill="#00005B"/><path d="M20.083 30.115h-7.75l-1.583 5.043a.366.366 0 0 1-.396.299H6.437c-.23 0-.291-.128-.23-.385l6.71-19.722c.062-.214.124-.406.208-.663.083-.449.124-.919.124-1.39-.02-.106.063-.212.167-.234h5.396c.146 0 .25.064.27.17l7.605 21.903c.062.235 0 .341-.209.341h-4.354c-.145.022-.292-.085-.333-.235l-1.709-5.128.001.001Zm-6.541-4.253h5.291a30.736 30.736 0 0 0-.48-1.538 65.812 65.812 0 0 1-.562-1.837c-.208-.663-.396-1.304-.604-1.966a48 48 0 0 1-.563-1.902c-.166-.598-.312-1.154-.458-1.667h-.042a26.93 26.93 0 0 1-.708 2.757c-.312 1.026-.625 2.094-.958 3.162a33.905 33.905 0 0 1-.917 2.991Zm25.5 2.288h-6.605c.083.662.292 1.324.646 1.901a3.32 3.32 0 0 0 1.522 1.282c.833.363 1.75.555 2.666.534.73-.022 1.459-.085 2.166-.236a7.658 7.658 0 0 0 1.854-.491c.105-.085.167-.043.167.17v3.27c0 .085-.02.17-.042.256a.49.49 0 0 1-.146.15 8.69 8.69 0 0 1-2.083.641c-.98.192-1.958.278-2.958.257-1.583 0-2.917-.257-4-.748a7.035 7.035 0 0 1-2.625-2.03 7.91 7.91 0 0 1-1.438-2.799 11.163 11.163 0 0 1-.437-3.12c0-1.154.166-2.286.52-3.397a8.781 8.781 0 0 1 1.564-2.928 7.577 7.577 0 0 1 2.52-2.03c.98-.49 2.146-.662 3.48-.662a7.367 7.367 0 0 1 3.23.663 5.758 5.758 0 0 1 2.187 1.709c.541.726.98 1.538 1.25 2.435.27.855.395 1.73.395 2.607 0 .513-.02.962-.041 1.368-.042.406-.063.705-.084.897-.02.15-.145.278-.291.278-.125 0-.354.021-.688.042a9.516 9.516 0 0 1-1.208.065c-.48 0-.98-.086-1.52-.086l-.001.001Zm-6.605-3.12h4.396c.542 0 .938 0 1.188-.021.167-.022.334-.065.479-.172v-.213a2.53 2.53 0 0 0-.125-.79c-.375-1.198-1.48-2.01-2.708-1.967-1.146-.064-2.23.556-2.771 1.624a4.518 4.518 0 0 0-.459 1.539Z" fill="#99F"/></g><defs><clipPath id="a"><path fill="#fff" transform="translate(0 .2)" d="M0 0h50v50H0z"/></clipPath></defs></svg>