<svg width="50" height="51" fill="none" xmlns="http://www.w3.org/2000/svg"><path d="M8.854.2h32.292C46.042.2 50 4.26 50 9.281V41.12c0 5.021-3.958 9.081-8.854 9.081H8.854C3.958 50.2 0 46.14 0 41.12V9.281C0 4.26 3.958.201 8.854.201Z" fill="#49021F"/><path d="M18.167 13.278V35.2c0 .235-.105.342-.292.342h-4.083c-.188 0-.271-.107-.271-.342V13.278c0-.193.104-.278.291-.278h4.063c.125-.021.25.064.27.213.022.022.022.043.022.065Zm12 22.606a10.137 10.137 0 0 1-4.48-.961c-1.312-.62-2.395-1.646-3.145-2.906-.771-1.304-1.146-2.928-1.146-4.872a8.952 8.952 0 0 1 1.146-4.509 8.757 8.757 0 0 1 3.312-3.312c1.459-.833 3.209-1.239 5.271-1.239.104 0 .25 0 .438.021.187.022.395.022.645.043v-6.752c0-.15.063-.235.209-.235h4.229c.104-.021.187.064.208.15v20.384c0 .385.021.812.042 1.282.041.449.062.876.083 1.24 0 .15-.062.277-.208.341-1.084.47-2.23.812-3.396 1.026-1.042.192-2.125.3-3.208.3Zm2.041-4.273v-9.402a5.292 5.292 0 0 0-.562-.107c-.23-.021-.459-.043-.688-.043-.812 0-1.625.171-2.354.556a4.708 4.708 0 0 0-1.77 1.581c-.459.684-.688 1.603-.688 2.714a6.08 6.08 0 0 0 .354 2.2c.208.578.52 1.09.938 1.518a3.58 3.58 0 0 0 1.416.855 5.33 5.33 0 0 0 1.73.277c.312 0 .604-.021.874-.042.271.02.521-.022.75-.107Z" fill="#F36"/></svg>