<svg width="30" height="50" viewBox="0 0 30 50" fill="none" xmlns="http://www.w3.org/2000/svg">
<g id="arrow_forward_ios">
<mask id="mask0_171_2358" style="mask-type:alpha" maskUnits="userSpaceOnUse" x="0" y="0" width="30" height="50">
<rect id="Bounding box" width="30" height="50" fill="#D9D9D9"/>
</mask>
<g mask="url(#mask0_171_2358)">
<path id="arrow_back_ios" d="M8.87476 25L27.2498 43.375C27.8748 44 28.1768 44.7292 28.156 45.5625C28.1352 46.3959 27.8123 47.125 27.1873 47.75C26.5623 48.375 25.8331 48.6875 24.9998 48.6875C24.1664 48.6875 23.4373 48.375 22.8123 47.75L3.56226 28.5625C3.06226 28.0625 2.68726 27.5 2.43726 26.875C2.18726 26.25 2.06226 25.625 2.06226 25C2.06226 24.375 2.18726 23.75 2.43726 23.125C2.68726 22.5 3.06226 21.9375 3.56226 21.4375L22.8123 2.18753C23.4373 1.56253 24.1768 1.26045 25.031 1.28128C25.8852 1.30211 26.6248 1.62503 27.2498 2.25003C27.8748 2.87503 28.1873 3.6042 28.1873 4.43753C28.1873 5.27087 27.8748 6.00003 27.2498 6.62503L8.87476 25Z" fill="#F2EFDE"/>
</g>
</g>
</svg>
