<svg width="30" height="50" viewBox="0 0 30 50" fill="none" xmlns="http://www.w3.org/2000/svg">
<mask id="mask0_171_2355" style="mask-type:alpha" maskUnits="userSpaceOnUse" x="0" y="0" width="30" height="50">
<rect x="30" y="50" width="30" height="50" transform="rotate(-180 30 50)" fill="#D9D9D9"/>
</mask>
<g mask="url(#mask0_171_2355)">
<path d="M21.1252 25L2.75025 6.62496C2.12525 5.99996 1.82316 5.2708 1.844 4.43746C1.86483 3.60413 2.18775 2.87496 2.81275 2.24996C3.43775 1.62496 4.16691 1.31246 5.00025 1.31246C5.83358 1.31246 6.56275 1.62496 7.18775 2.24996L26.4377 21.4375C26.9377 21.9375 27.3127 22.5 27.5627 23.125C27.8127 23.75 27.9377 24.375 27.9377 25C27.9377 25.625 27.8127 26.25 27.5627 26.875C27.3127 27.5 26.9377 28.0625 26.4377 28.5625L7.18774 47.8125C6.56274 48.4375 5.82316 48.7395 4.96899 48.7187C4.11483 48.6979 3.37524 48.375 2.75024 47.75C2.12524 47.125 1.81274 46.3958 1.81274 45.5625C1.81274 44.7291 2.12524 44 2.75024 43.375L21.1252 25Z" fill="#F2EFDE"/>
</g>
</svg>
