<svg width="852" height="305" viewBox="0 0 852 305" fill="none" xmlns="http://www.w3.org/2000/svg">
<path d="M403.5 217.57C441.855 199.617 544.553 175.1 648.5 220.66L403.5 217.57Z" fill="#093409"/>
<path d="M0 254.159C36.5 243.493 118.5 203.159 154.5 127.159C199.5 32.1592 151 -90.3408 266.5 100.659C328.619 203.384 432.936 243.014 519.35 254.159H626C599.346 258.256 561.475 259.592 519.35 254.159H0Z" fill="#093409"/>
<path d="M242.5 277.66C373 226.346 677.5 154.506 851.5 277.66H242.5Z" fill="#247022"/>
<path d="M609.858 229.036C612.855 234.416 634.332 233.744 636.33 234.08C642.989 236.994 649.915 244.233 624.343 249.882C592.377 256.942 511.964 248.873 504.972 244.166C499.378 240.4 544.929 232.511 568.403 229.036C581.223 227.243 607.461 224.733 609.858 229.036Z" fill="#05B9D0"/>
<path d="M405.755 119.605C446.476 58.491 509.885 199.511 536.5 277.66H280.5C305.285 250.44 365.035 180.72 405.755 119.605Z" fill="#5B9459"/>
<path d="M521.5 266.16C454.3 261.76 397.167 276.66 377 284.66H613C610.5 280.326 588.7 270.56 521.5 266.16Z" fill="#093409"/>
<path fill-rule="evenodd" clip-rule="evenodd" d="M49 266.46C84.8333 218.126 180.1 150.46 274.5 266.46H49Z" fill="#247022"/>
<path d="M207 255.16C250.6 214.76 381.5 264.994 441.5 295.16H173.5C175.9 284.76 196.833 264.16 207 255.16Z" fill="#81C730"/>
<path d="M230.5 304.329C267.167 290.996 351.3 272.329 394.5 304.329H230.5Z" fill="#C0E398"/>
</svg>
