<svg width="1529" height="4074" fill="none" xmlns="http://www.w3.org/2000/svg"><path d="M379.784 78c-106.502-6.4 48.521-54.667 139.345-78h5.18C431 31.5 404.072 39.5 402 41c-63.5 27.5-57.327 8.5 81.5 32.5 111.061 19.2 159.946 42 161.5 49 2.245 6.667-25.792 26.7-79.25 33.5-169.078 22.8-218.6 42.5-222.226 49.5-20.03 7-2.797 27.3 226.37 52.5s272.646 63.167 265.739 79c-7.943 22.833-105.674 83.1-433.056 141.5-417.516 49 135.2 127 386.435 176.5C990 694.6 914.543 774.833 851.691 810 746.708 852.333 474.5 911.5 278.255 975c-248.576 80.43 205.131 129.5 579.134 221 299.201 73.2 268.331 160.5 215.491 195-68.89 37.67-293.71 121.3-641.813 154.5C82.965 1578.7 563.5 1738 846 1829.5c172.67 67.33 469.41 240.7 229.47 395.5-239.941 154.8-479.848 444.83-569.809 570.5C380.924 3023.9 1238 3592.5 1678 3882c257.2 226.8 940.17 688.17 1249.5 890.5H1632c-239.6-97.2-811.5-624.5-1067.5-876-203.405-160.5-414.14-525.5-532-761-120.478-240.73 125.922-441.33 245.754-532 95.487-89.83 349.139-301 599.856-427 250.72-126 8.46-232.17-144.007-269.5-118.106-34.5-401.354-129-589.495-231-188.14-102 63.197-166.5 212.384-186 59.916-5.33 236.419-31.2 463.1-92 226.678-60.8 73.731-137-31.08-167.5-84.608-27.67-257.189-59-612.012-133.5-354.823-74.5 97.569-185.5 202.784-205C485 872.5 722.534 812.333 820.092 769 938.717 677.5 578.7 657 272.556 581c-296.82-110.5 280.243-127 444.452-205.5S617.033 303 402.577 251 453.86 171 578.7 147.5C703.54 124 512.913 86 379.784 78Z" fill="#A2976B"/></svg>