<svg width="708" height="305" viewBox="0 0 708 305" fill="none" xmlns="http://www.w3.org/2000/svg">
<path d="M342.5 229.161C317.667 176.661 250.7 103.161 181.5 229.161H342.5Z" fill="#093409"/>
<path d="M500.5 108.159C468.1 78.5593 415 169.159 392.5 218.159H708C695.167 202.159 661.3 146.359 628.5 51.1595C595.7 -44.0405 570.167 15.1595 561.5 56.6595C554.667 86.1594 532.9 137.759 500.5 108.159Z" fill="#093409"/>
<path d="M491.5 238.654C536.5 197.154 630.6 139.054 647 238.654H491.5Z" fill="#5B9459"/>
<path fill-rule="evenodd" clip-rule="evenodd" d="M592 249.659C565.167 225.659 504.9 181.359 478.5 196.159C452.1 210.959 255.833 237.992 161 249.659H592Z" fill="#247022"/>
<path d="M243.653 142.678C232.875 67.2921 127.06 187.255 75.5 256.66H317.5C297.375 250.077 254.43 218.064 243.653 142.678Z" fill="#5B9459"/>
<path d="M451.5 276.169C429.578 226.187 346.088 156.71 187.5 278.66L451.5 276.169Z" fill="#81C730"/>
<path d="M0.5 304.532C63.5 248.032 224.3 168.932 363.5 304.532H0.5Z" fill="#C0E398"/>
</svg>
