<svg width="1251" height="872" viewBox="0 0 1251 872" fill="none" xmlns="http://www.w3.org/2000/svg">
<path fill-rule="evenodd" clip-rule="evenodd" d="M1101 806.939C1144.33 728.903 1169 639.083 1169 543.5C1169 243.333 925.667 0 625.5 0C325.333 0 82 243.333 82 543.5C82 638.7 106.477 728.183 149.48 806H1101V806.939Z" fill="#DBD1AD"/>
<path d="M403.5 783.57C441.855 765.617 544.553 741.1 648.5 786.66L403.5 783.57Z" fill="#093409"/>
<path d="M0 820.159C36.5 809.493 118.5 769.159 154.5 693.159C199.5 598.159 151 475.659 266.5 666.659C328.619 769.384 432.936 809.014 519.35 820.159H626C599.346 824.256 561.475 825.592 519.35 820.159H0Z" fill="#093409"/>
<path d="M242.5 843.66C373 792.346 677.5 720.506 851.5 843.66H242.5Z" fill="#247022"/>
<path d="M609.858 795.036C612.855 800.416 634.332 799.744 636.33 800.08C642.989 802.994 649.915 810.233 624.343 815.882C592.377 822.942 511.964 814.873 504.972 810.166C499.378 806.4 544.929 798.511 568.403 795.036C581.223 793.243 607.461 790.733 609.858 795.036Z" fill="#05B9D0"/>
<path d="M405.755 685.605C446.476 624.491 509.885 765.511 536.5 843.66H280.5C305.285 816.44 365.035 746.72 405.755 685.605Z" fill="#5B9459"/>
<path d="M521.5 832.16C454.3 827.76 397.167 842.66 377 850.66H613C610.5 846.326 588.7 836.56 521.5 832.16Z" fill="#093409"/>
<path fill-rule="evenodd" clip-rule="evenodd" d="M49 832.46C84.8333 784.126 180.1 716.46 274.5 832.46H49Z" fill="#247022"/>
<path d="M207 821.16C250.6 780.76 381.5 830.994 441.5 861.16H173.5C175.9 850.76 196.833 830.16 207 821.16Z" fill="#81C730"/>
<path d="M230.5 870.329C267.167 856.996 351.3 838.329 394.5 870.329H230.5Z" fill="#C0E398"/>
<path d="M885.5 796.161C860.667 743.661 793.7 670.161 724.5 796.161H885.5Z" fill="#093409"/>
<path d="M1043.5 675.159C1011.1 645.559 958 736.159 935.5 785.159H1251C1238.17 769.159 1204.3 713.359 1171.5 618.159C1138.7 522.959 1113.17 582.159 1104.5 623.659C1097.67 653.159 1075.9 704.759 1043.5 675.159Z" fill="#093409"/>
<path d="M1034.5 805.654C1079.5 764.154 1173.6 706.054 1190 805.654H1034.5Z" fill="#5B9459"/>
<path fill-rule="evenodd" clip-rule="evenodd" d="M1135 816.659C1108.17 792.659 1047.9 748.359 1021.5 763.159C995.1 777.959 798.833 804.992 704 816.659H1135Z" fill="#247022"/>
<path d="M786.653 709.678C775.875 634.292 670.06 754.255 618.5 823.66H860.5C840.375 817.077 797.43 785.064 786.653 709.678Z" fill="#5B9459"/>
<path d="M994.5 843.169C972.578 793.187 889.088 723.71 730.5 845.66L994.5 843.169Z" fill="#81C730"/>
<path d="M543.5 871.532C606.5 815.032 767.3 735.932 906.5 871.532H543.5Z" fill="#C0E398"/>
</svg>
