<svg width="50" height="50" fill="none" xmlns="http://www.w3.org/2000/svg"><rect width="50" height="50" rx="12" fill="#fff"/><path d="M18.25 45.543c3.726 0 6.75-3.068 6.75-6.847v-6.848h-6.75c-3.726 0-6.75 3.068-6.75 6.848s3.024 6.847 6.75 6.847Z" fill="#0ACF83"/><path d="M11.5 25c0-3.78 3.024-6.848 6.75-6.848H25v13.696h-6.75c-3.726 0-6.75-3.068-6.75-6.848Z" fill="#A259FF"/><path d="M11.5 11.304c0-3.78 3.024-6.847 6.75-6.847H25v13.695h-6.75c-3.726 0-6.75-3.068-6.75-6.848Z" fill="#F24E1E"/><path d="M25 4.457h6.75c3.726 0 6.75 3.067 6.75 6.847 0 3.78-3.024 6.848-6.75 6.848H25V4.457Z" fill="#FF7262"/><path d="M38.5 25c0 3.78-3.024 6.848-6.75 6.848S25 28.78 25 25s3.024-6.848 6.75-6.848S38.5 21.22 38.5 25Z" fill="#1ABCFE"/></svg>