<svg width="440" height="382" fill="none" xmlns="http://www.w3.org/2000/svg"><path d="M78.044 69.047V47c17.637 0 22.047 14.698 22.047 22.047H78.044Z" fill="#C0E398"/><path d="M78.047 47v22.047C60.41 69.047 56 54.349 56 47h22.047Zm49.608 73.856v22.046c-17.637 0-22.046-14.697-22.046-22.046h22.046Z" fill="#C0E398"/><path d="M127.652 142.902v-22.047c17.638 0 22.047 14.698 22.047 22.047h-22.047ZM78.044 93.297V71.25c17.637 0 22.047 14.698 22.047 22.047H78.044Z" fill="#C0E398"/><path d="M78.047 71.25v22.047C60.41 93.297 56 78.599 56 71.25h22.047Zm49.608 25.356v22.046c-17.637 0-22.046-14.697-22.046-22.046h22.046Z" fill="#C0E398"/><path d="M127.652 118.652V96.606c17.638 0 22.047 14.697 22.047 22.046h-22.047Zm-2.206-47.402h-22.047c0-17.637 14.698-22.047 22.047-22.047V71.25Z" fill="#C0E398"/><path d="M103.4 71.248h22.046c0 17.637-14.697 22.047-22.046 22.047V71.248ZM80.251 118.65h22.047c0 17.638-14.698 22.047-22.047 22.047V118.65Z" fill="#C0E398"/><path d="M102.299 118.652H80.252c0-17.637 14.698-22.046 22.047-22.046v22.046Zm47.399-47.402h-22.047c0-17.637 14.698-22.047 22.047-22.047V71.25Z" fill="#C0E398"/><path d="M127.652 71.248h22.046c0 17.637-14.698 22.047-22.046 22.047V71.248ZM56 118.65h22.047c0 17.638-14.698 22.047-22.047 22.047V118.65Z" fill="#C0E398"/><path d="M78.048 118.652H56c0-17.637 14.698-22.046 22.047-22.046v22.046Zm219.996 141.395V238c17.637 0 22.047 14.698 22.047 22.047h-22.047Z" fill="#C0E398"/><path d="M298.047 238v22.047C280.41 260.047 276 245.349 276 238h22.047Zm49.608 73.856v22.046c-17.637 0-22.046-14.697-22.046-22.046h22.046Z" fill="#C0E398"/><path d="M347.652 333.902v-22.047c17.638 0 22.047 14.698 22.047 22.047h-22.047Zm-49.608-49.605V262.25c17.637 0 22.047 14.698 22.047 22.047h-22.047Z" fill="#C0E398"/><path d="M298.047 262.25v22.047c-17.637 0-22.047-14.698-22.047-22.047h22.047Zm49.608 25.356v22.046c-17.637 0-22.046-14.697-22.046-22.046h22.046Z" fill="#C0E398"/><path d="M347.652 309.652v-22.047c17.638 0 22.047 14.698 22.047 22.047h-22.047Zm-2.206-47.402h-22.047c0-17.637 14.698-22.047 22.047-22.047v22.047Z" fill="#C0E398"/><path d="M323.4 262.248h22.046c0 17.637-14.697 22.047-22.046 22.047v-22.047Zm-23.149 47.402h22.047c0 17.638-14.698 22.047-22.047 22.047V309.65Z" fill="#C0E398"/><path d="M322.299 309.652h-22.047c0-17.637 14.698-22.046 22.047-22.046v22.046Zm47.399-47.402h-22.047c0-17.637 14.698-22.047 22.047-22.047v22.047Z" fill="#C0E398"/><path d="M347.652 262.248h22.046c0 17.637-14.698 22.047-22.046 22.047v-22.047ZM276 309.65h22.047c0 17.638-14.698 22.047-22.047 22.047V309.65Z" fill="#C0E398"/><path d="M298.048 309.652h-22.047c0-17.637 14.698-22.046 22.047-22.046v22.046Z" fill="#C0E398"/></svg>