<svg width="36" height="22" fill="none" xmlns="http://www.w3.org/2000/svg"><mask id="a" style="mask-type:alpha" maskUnits="userSpaceOnUse" x="0" y="0" width="36" height="22"><path transform="rotate(-180 36 21.8)" fill="#D9D9D9" d="M36 21.8h36v21.6H36z"/></mask><g mask="url(#a)"><path d="M18 .875c.4 0 .775.063 1.125.188s.675.337.975.637l13.8 13.8c.55.55.825 1.25.825 2.1 0 .85-.275 1.55-.825 2.1-.55.55-1.25.825-2.1.825-.85 0-1.55-.275-2.1-.825L18 8 6.3 19.7c-.55.55-1.25.825-2.1.825-.85 0-1.55-.275-2.1-.825-.55-.55-.825-1.25-.825-2.1 0-.85.275-1.55.825-2.1L15.9 1.7c.3-.3.625-.512.975-.637A3.32 3.32 0 0 1 18 .875Z" fill="#F2EFDE"/></g></svg>