<svg width="40" height="41" fill="none" xmlns="http://www.w3.org/2000/svg"><path d="M37.04.032H2.95C1.323.032 0 1.323 0 2.916v34.23c0 1.592 1.323 2.886 2.95 2.886h34.09c1.631 0 2.96-1.294 2.96-2.887V2.916C40 1.323 38.672.032 37.04.032Z" fill="#F2EFDE"/><path d="M5.926 15.027h5.94v19.088h-5.94V15.027Zm2.971-9.489a3.44 3.44 0 0 1 0 6.88 3.444 3.444 0 0 1-3.441-3.44c0-1.9 1.536-3.44 3.441-3.44Zm6.691 9.489h5.687v2.61h.081c.791-1.502 2.726-3.084 5.613-3.084 6.007 0 7.118 3.953 7.118 9.094v10.468h-5.933v-9.282c0-2.213-.038-5.061-3.083-5.061-3.045 0-3.558 2.413-3.558 4.903v9.44h-5.925V15.027Z" fill="#247022"/></svg>