<svg width="176" height="136" fill="none" xmlns="http://www.w3.org/2000/svg"><g clip-path="url(#a)"><path fill="#D9D9D9" d="M15 15h146v106H15z"/><rect x="1.5" y="1.5" width="173" height="133" rx="3.5" fill="#093409"/><rect x="1.5" y="1.5" width="173" height="133" rx="3.5" stroke="#F2EFDE" stroke-width="3"/><path fill="#093409" d="M15 15h146v106H15z"/><path d="M68 43c0-8.333-5-25-25-25S18 34.667 18 43c0 8.333 5 25 25 25s25 16.667 25 25c0 8.333-5 25-25 25s-25-16.667-25-25" stroke="#F2EFDE" stroke-width="6"/><path d="M43 18h75v50c0 8.333-5 25-25 25S68 76.333 68 68" stroke="#F2EFDE" stroke-width="6"/><path d="M152.929 121v-20h7.138v2.4h-4.438v6.275h4.188v2.4h-4.188v6.525h4.438v2.4h-7.138Zm-15.566 0v-20h4.125l1.3 6.35 1.537 11.25h.613l-.5-9.775-.2-7.825h2.625v20h-4.313l-1.375-6.863-1.225-10.75h-.65l.463 10.038.212 7.575h-2.612Zm-8.78 0v-20h2.7v20h-2.7Zm-10.64 0v-17.6h-2.875V101h8.463v2.4h-2.875V121h-2.713Zm-11.818.213c-1.492 0-2.558-.321-3.2-.963-.642-.65-.992-1.717-1.05-3.2l-.025-1.137c0-.375.004-.75.013-1.125.016-.375.041-.759.075-1.15h2.55a51.301 51.301 0 0 0-.063 2c0 .666.021 1.295.063 1.887.033.492.179.858.437 1.1.258.233.654.35 1.188.35.525 0 .904-.117 1.137-.35.233-.242.375-.608.425-1.1.025-.375.042-.725.05-1.05.008-.325.008-.654 0-.987-.008-.334-.025-.7-.05-1.1-.033-.492-.133-.913-.3-1.263-.167-.35-.471-.583-.912-.7l-1.675-.425c-.75-.192-1.338-.471-1.763-.837a3.12 3.12 0 0 1-.912-1.425c-.184-.575-.288-1.263-.313-2.063-.008-.45-.012-.908-.012-1.375l.025-1.387c.033-.984.191-1.775.475-2.375a2.666 2.666 0 0 1 1.362-1.325c.625-.284 1.446-.425 2.463-.425 1.441 0 2.483.32 3.125.962.65.642 1.004 1.7 1.062 3.175.017.408.021.913.013 1.513a65.835 65.835 0 0 1-.05 1.775h-2.6c.025-.625.037-1.25.037-1.875.008-.634 0-1.263-.025-1.888-.008-.483-.146-.842-.412-1.075-.267-.242-.655-.362-1.163-.362-.533 0-.921.12-1.162.362-.242.233-.384.592-.425 1.075a20.532 20.532 0 0 0-.063 1.613c.008.541.029 1.079.063 1.612.033.533.137.963.312 1.288.175.325.492.545.95.662l1.513.363c.791.183 1.408.47 1.85.862.441.383.754.871.937 1.463.183.583.288 1.275.313 2.075a21.058 21.058 0 0 1 .012 1.787c-.008.267-.017.558-.025.875-.058 1.483-.412 2.55-1.062 3.2-.642.642-1.705.963-3.188.963Zm54.088-102.272c0 1.492-.321 2.559-.963 3.2-.65.642-1.717.992-3.2 1.05l-1.137.025c-.375 0-.75-.004-1.125-.012a28.518 28.518 0 0 1-1.15-.075v-2.55a53.35 53.35 0 0 0 2 .062c.666 0 1.295-.02 1.887-.062.492-.033.858-.18 1.1-.438.233-.258.35-.654.35-1.187 0-.525-.117-.904-.35-1.138-.242-.233-.608-.375-1.1-.425a25.721 25.721 0 0 0-1.05-.05 19.564 19.564 0 0 0-.987 0c-.334.009-.7.025-1.1.05-.492.034-.913.134-1.263.3-.35.167-.583.471-.7.913L151 20.279c-.192.75-.471 1.337-.837 1.762-.375.425-.85.73-1.425.913-.575.183-1.263.287-2.063.312a68.8 68.8 0 0 1-1.375.013l-1.387-.025c-.984-.033-1.775-.192-2.375-.475a2.67 2.67 0 0 1-1.325-1.363c-.284-.625-.425-1.445-.425-2.462 0-1.442.32-2.483.962-3.125.642-.65 1.7-1.004 3.175-1.063.408-.016.913-.02 1.513-.012.591.008 1.183.025 1.775.05v2.6a46.908 46.908 0 0 0-1.875-.038 35.57 35.57 0 0 0-1.888.025c-.483.009-.842.146-1.075.413-.242.267-.362.654-.362 1.162 0 .534.12.921.362 1.163.233.242.592.383 1.075.425a20.68 20.68 0 0 0 1.613.062 34.306 34.306 0 0 0 1.612-.062c.533-.033.963-.138 1.288-.313.325-.175.545-.491.662-.95l.363-1.512c.183-.792.47-1.408.862-1.85a3.108 3.108 0 0 1 1.463-.938c.583-.183 1.275-.287 2.075-.312.35-.017.666-.025.95-.025.283 0 .562.004.837.012.267.009.558.017.875.025 1.483.059 2.55.413 3.2 1.063.642.642.963 1.704.963 3.187Zm-.001 14.124c0 1.516-.316 2.604-.949 3.262-.642.65-1.705.983-3.188 1a643.735 643.735 0 0 1-16.075 0v-2.7a632.423 632.423 0 0 0 11.087.05 934.9 934.9 0 0 0 5.463-.038c.475 0 .833-.133 1.075-.4.233-.266.35-.658.35-1.174 0-.526-.117-.913-.35-1.163-.242-.258-.6-.387-1.075-.387-1.775-.017-3.596-.03-5.463-.038a624.894 624.894 0 0 0-5.612 0c-1.875 0-3.7.012-5.475.038v-2.7a512.4 512.4 0 0 1 16.075 0c1.483.016 2.546.354 3.188 1.012.633.65.949 1.73.949 3.238ZM160 45.931h-20v-2.7h20v2.7Zm0 11.143h-20v-2.7h17.6V49.91h2.4v7.163Zm.212 10.16c0 1.517-.316 2.605-.949 3.263-.642.65-1.705.983-3.188 1a643.735 643.735 0 0 1-16.075 0v-2.7a632.423 632.423 0 0 0 11.087.05c1.867-.008 3.688-.021 5.463-.038.475 0 .833-.133 1.075-.4.233-.266.35-.658.35-1.175 0-.525-.117-.912-.35-1.162-.242-.258-.6-.388-1.075-.388-1.775-.016-3.596-.029-5.463-.037a624.894 624.894 0 0 0-5.612 0c-1.875 0-3.7.012-5.475.037v-2.7a512.4 512.4 0 0 1 16.075 0c1.483.017 2.546.355 3.188 1.013.633.65.949 1.729.949 3.237Zm0 14.104c0 .991-.137 1.783-.412 2.375a2.592 2.592 0 0 1-1.338 1.275c-.616.258-1.42.4-2.412.424a56.065 56.065 0 0 1-3.413 0v-2.55c.375.017.796.03 1.263.038h1.375c.458-.008.875-.02 1.25-.038.492-.016.858-.141 1.1-.374.233-.242.35-.626.35-1.15 0-.525-.117-.9-.35-1.125-.242-.225-.608-.338-1.1-.338H140v-2.7h16.05c1.483 0 2.55.313 3.2.938.642.624.962 1.7.962 3.225Z" fill="#F2EFDE"/></g><defs><clipPath id="a"><path fill="#fff" d="M0 0h176v136H0z"/></clipPath></defs></svg>