<svg width="40" height="33" fill="none" xmlns="http://www.w3.org/2000/svg"><mask id="a" style="mask-type:alpha" maskUnits="userSpaceOnUse" x="0" y="0" width="40" height="33"><path fill="#D9D9D9" d="M0 .032h40v32H0z"/></mask><g mask="url(#a)"><path d="M5.185 30.402c-1.018 0-1.89-.363-2.616-1.088-.725-.725-1.088-1.597-1.088-2.616V4.476c0-1.018.363-1.89 1.088-2.616C3.295 1.135 4.167.772 5.185.772h29.63c1.018 0 1.89.363 2.616 1.088.725.726 1.088 1.598 1.088 2.616v22.222c0 1.019-.363 1.89-1.088 2.616-.726.725-1.598 1.088-2.616 1.088H5.185ZM20 17.115a1.926 1.926 0 0 0 .972-.278l13.102-8.194a1.53 1.53 0 0 0 .556-.579c.123-.231.185-.486.185-.764 0-.617-.263-1.08-.787-1.389-.525-.308-1.065-.293-1.62.047L20 13.735 7.593 5.958c-.556-.34-1.096-.348-1.62-.024-.526.325-.788.78-.788 1.366 0 .309.062.579.185.81.124.232.309.41.556.533l13.102 8.194a1.927 1.927 0 0 0 .972.278Z" fill="#F2EFDE"/></g></svg>