<svg width="45" height="46" fill="none" xmlns="http://www.w3.org/2000/svg"><mask id="a" style="mask-type:alpha" maskUnits="userSpaceOnUse" x="0" y="0" width="45" height="46"><path fill="#D9D9D9" d="M0 .5h45v45H0z"/></mask><g mask="url(#a)"><path d="M2.5 38.5c-.708 0-1.302-.24-1.781-.719C.239 37.302 0 36.708 0 36s.24-1.302.719-1.781c.479-.48 1.073-.719 1.781-.719h40c.708 0 1.302.24 1.781.719.48.479.719 1.073.719 1.781s-.24 1.302-.719 1.781c-.479.48-1.073.719-1.781.719h-40Zm0-12.5c-.708 0-1.302-.24-1.781-.719C.239 24.802 0 24.208 0 23.5s.24-1.302.719-1.781C1.198 21.239 1.792 21 2.5 21h40c.708 0 1.302.24 1.781.719.48.479.719 1.073.719 1.781s-.24 1.302-.719 1.781c-.479.48-1.073.719-1.781.719h-40Zm0-12.5c-.708 0-1.302-.24-1.781-.719C.239 12.302 0 11.708 0 11s.24-1.302.719-1.781C1.198 8.739 1.792 8.5 2.5 8.5h40c.708 0 1.302.24 1.781.719.48.479.719 1.073.719 1.781s-.24 1.302-.719 1.781c-.479.48-1.073.719-1.781.719h-40Z" fill="#F2EFDE"/></g></svg>