<svg width="1101" height="2825" fill="none" xmlns="http://www.w3.org/2000/svg"><path d="M91.37 27c-43.2-6.4-18-20.667 0-27h2c-32 23-10 8 119.499 38.5 103.6 24.4 130.833 81.833 131.5 107.5 5.167 41.667-11.2 145.1-118 225.5-253 141.5-62.5 188.5 24.5 201.5 69.6 10.4 104.667 52.667 113.5 72.5 21 66.667 22.8 229.7-138 348.5-201 148.5-66.5 213-20 230 37.2 13.6 110.667 67 139.5 90 75 65 138 236.6-102 295-300 73-60.5 172.5-6.5 203 43.2 24.4 116.667 107.83 148 146.5 32.667 55.17 44 191.2-172 294-216 102.8 180.464 178.33 339.131 194 125.5 16 410.8 46.8 548 42v336c-140-10-423.667-100.17-548-144-71.2-14.8-359.798-154.33-428.631-192-244.8-154.4-70.666-271.67 47-311 102.167-32 240.7-134.2-22.5-287s-94.666-271 22.5-311c82.667-29.33 203.1-118.8 23.5-242-294-177.2-181.5-293.17-88.5-329 25-10.833 86.9-55.2 134.5-146 59.5-113.5-33-189-188-295.5-124-85.2 1-174.833 79-209 43.167-27 138.5-98 174.5-166s-56.333-121.333-107-139.5c-17.833-5.833-64.3-19.1-107.5-25.5Z" fill="#A2976B"/></svg>