<svg width="40" height="41" fill="none" xmlns="http://www.w3.org/2000/svg"><mask id="a" style="mask-type:alpha" maskUnits="userSpaceOnUse" x="0" y="0" width="40" height="41"><path fill="#D9D9D9" d="M0 .032h40v40H0z"/></mask><g mask="url(#a)"><path d="M36.563 38.782c-4.34 0-8.629-.946-12.865-2.839-4.236-1.892-8.09-4.574-11.563-8.047-3.472-3.472-6.154-7.326-8.046-11.562C2.196 12.098 1.25 7.81 1.25 3.469c0-.625.208-1.146.625-1.562.417-.417.938-.625 1.563-.625h8.437c.486 0 .92.165 1.302.495.382.33.608.72.677 1.171l1.354 7.292c.07.556.052 1.024-.052 1.406a2.19 2.19 0 0 1-.573.99L9.531 17.74a25.19 25.19 0 0 0 2.474 3.724 36.645 36.645 0 0 0 3.151 3.464 36.641 36.641 0 0 0 3.386 2.994c1.18.92 2.43 1.762 3.75 2.526l4.895-4.895c.313-.313.721-.547 1.224-.704.504-.156.999-.2 1.485-.13l7.187 1.459c.486.139.886.39 1.198.755.313.364.469.772.469 1.224v8.437c0 .625-.208 1.146-.625 1.563-.417.416-.938.625-1.563.625Z" fill="#F2EFDE"/></g></svg>