<svg width="50" height="50" fill="none" xmlns="http://www.w3.org/2000/svg"><rect width="50" height="50" rx="12" fill="#fff"/><path d="M5.38 18.949s-.974-.71.195-1.658L8.3 14.829s.78-.829 1.604-.107l25.135 19.236v9.224s-.012 1.449-1.85 1.289L5.38 18.949Z" fill="#2489CA"/><path d="m11.86 24.895-6.48 5.953s-.665.501 0 1.395l3.008 2.766s.715.776 1.77-.107l6.869-5.264-5.168-4.744Z" fill="#1070B3"/><path d="m23.234 24.943 11.882-9.17-.077-9.175s-.508-2.003-2.2-.96L17.026 20.184l6.207 4.76Z" fill="#0877B9"/><path d="M33.187 44.483c.69.714 1.527.48 1.527.48l9.259-4.612c1.185-.816 1.019-1.83 1.019-1.83V10.98c0-1.21-1.226-1.629-1.226-1.629l-8.025-3.91c-1.754-1.096-2.903.197-2.903.197s1.478-1.075 2.2.96v36.416c0 .25-.052.497-.158.718-.211.431-.67.833-1.77.665l.077.086Z" fill="#3C99D4"/></svg>